<svg preserveAspectRatio="none" width="100%" height="100%" overflow="visible" style="display: block;" viewBox="0 0 9.36293 14.9458" fill="none" xmlns="http://www.w3.org/2000/svg">
<path id="&#229;&#189;&#162;&#231;&#138;&#182;&#231;&#187;&#147;&#229;&#144;&#136;&#229;&#164;&#135;&#228;&#187;&#189; 2" fill-rule="evenodd" clip-rule="evenodd" d="M6.39357 0.464892C7.01727 -0.1547 8.02405 -0.155002 8.64813 0.464215L8.88987 0.704077C9.52035 1.32965 9.52066 2.34902 8.89055 2.97497L4.36278 7.47288L8.89055 11.9708C9.52066 12.5967 9.52035 13.6161 8.88987 14.2417L8.64813 14.4816C8.02405 15.1008 7.01727 15.1005 6.39357 14.4809L0.868154 8.9919C0.814935 8.951 0.763696 8.90629 0.714806 8.85778L0.473061 8.61792C0.155346 8.30268 -0.00234168 7.88744 2.68498e-05 7.47293C-0.00236708 7.05839 0.155321 6.64311 0.47306 6.32784L0.714806 6.08798C0.763698 6.03947 0.814938 5.99476 0.86816 5.95386L6.39357 0.464892Z" fill="var(--fill-0, #CFD6E2)"/>
</svg>
