<svg preserveAspectRatio="none" width="100%" height="100%" overflow="visible" style="display: block;" viewBox="0 0 541 131" fill="none" xmlns="http://www.w3.org/2000/svg">
<g id="&#231;&#159;&#169;&#229;&#189;&#162;">
<path d="M0 10C0 4.47716 4.47715 0 10 0H531C536.523 0 541 4.47715 541 10V121C541 126.523 536.523 131 531 131H10C4.47716 131 0 126.523 0 121V10Z" fill="var(--fill-0, white)"/>
<path d="M0 10C0 4.47716 4.47715 0 10 0H531C536.523 0 541 4.47715 541 10V121C541 126.523 536.523 131 531 131H10C4.47716 131 0 126.523 0 121V10Z" fill="var(--fill-1, #393D46)"/>
<path d="M0 10C0 4.47716 4.47715 0 10 0H531C536.523 0 541 4.47715 541 10V121C541 126.523 536.523 131 531 131H10C4.47716 131 0 126.523 0 121V10Z" stroke="var(--stroke-0, #F1F1F1)"/>
</g>
</svg>
