<svg preserveAspectRatio="none" width="100%" height="100%" overflow="visible" style="display: block;" viewBox="0 0 44 44" fill="none" xmlns="http://www.w3.org/2000/svg">
<g id="Group 72">
<circle id="&#230;&#164;&#173;&#229;&#156;&#134;&#229;&#189;&#162;" opacity="0.912691" cx="22" cy="22" r="22" fill="var(--fill-0, #DC8F08)"/>
<path id="&#232;&#183;&#175;&#229;&#190;&#132;" d="M29.6241 23.5281C29.5503 23.6064 29.2724 23.9414 29.0136 24.2161C27.4965 25.9498 22.668 28.7866 20.596 29.6521C20.2816 29.7916 19.4861 30.0861 19.0606 30.1051C18.6546 30.1058 18.2545 30.0048 17.8943 29.8106C17.4291 29.5327 17.0653 29.1034 16.8592 28.5894C16.7289 28.2336 16.5248 27.1709 16.5248 27.152C16.3233 25.9894 16.2104 24.0991 16.2104 22.0106C16.2104 20.0203 16.3225 18.2074 16.4883 17.0268C16.5074 17.0087 16.7107 15.6876 16.9321 15.2346C17.3403 14.4079 18.1357 13.8945 18.9868 13.8945H19.0606C19.6155 13.9144 20.7818 14.4277 20.7818 14.4475C22.7419 15.3147 27.4782 18.012 29.0327 19.8051C29.0327 19.8051 29.4704 20.2653 29.6614 20.5526C29.9576 20.9668 30.1052 21.4784 30.1052 21.9899C30.1052 22.5618 29.9393 23.094 29.6241 23.5272V23.5281Z" fill="var(--fill-0, white)"/>
</g>
</svg>
