<svg preserveAspectRatio="none" width="100%" height="100%" overflow="visible" style="display: block;" viewBox="0 0 44 40.3346" fill="none" xmlns="http://www.w3.org/2000/svg">
<g id="&#231;&#188;&#150;&#231;&#187;&#132; 29">
<path id="&#231;&#159;&#169;&#229;&#189;&#162;" d="M38 1C40.7614 1 43 3.23858 43 6V30.3193C43 33.0807 40.7614 35.3193 38 35.3193H26.9609L22.8057 38.8574C22.0393 39.5098 20.9075 39.4908 20.1631 38.8135L16.3223 35.3193H6C3.23859 35.3193 1.00002 33.0807 1 30.3193V6C1 3.23858 3.23858 1 6 1H38Z" stroke="var(--stroke-0, #8D94A4)" stroke-width="2"/>
<circle id="&#230;&#164;&#173;&#229;&#156;&#134;&#229;&#189;&#162;" cx="22.6527" cy="28.638" r="3.33333" fill="var(--fill-0, #8D94A4)"/>
<path id="&#231;&#159;&#169;&#229;&#189;&#162;_2" fill-rule="evenodd" clip-rule="evenodd" d="M19.5369 10.2903C19.4191 8.49317 20.8451 6.9707 22.6461 6.9707C24.452 6.9707 25.8796 8.50103 25.7544 10.3026L24.9804 21.4391C24.8944 22.6771 23.865 23.6374 22.6241 23.6374C21.3796 23.6374 20.3485 22.6717 20.2671 21.4298L19.5369 10.2903Z" fill="var(--fill-0, #8D94A4)"/>
</g>
</svg>
